<svg xmlns="http://www.w3.org/2000/svg" width="431" height="120" viewBox="0 0 431 120"><defs><clipPath id="vqnqa"><path d="M0 119.393V0h431v119.393z"/></clipPath><clipPath id="vqnqb"><path d="M0 119.393V0h431v119.393z"/></clipPath></defs><g><g><g><g><g/><g clip-path="url(#vqnqa)"><path fill="#52ae39" d="M28.968 70.966c-4.966-4.966-4.966-13.016 0-17.982 4.965-4.965 13.015-4.965 17.981 0 4.965 4.966 4.965 13.016 0 17.982-4.966 4.965-13.016 4.965-17.981 0"/></g><g clip-path="url(#vqnqa)"><g><text dominant-baseline="text-before-edge" style="line-height:32px;font-kerning:normal" fill="#1673b9" font-family="'Gilroy-Extrabold','Gilroy-Extrabold'" font-size="27" transform="translate(-335 -100)"><tspan font-family="Gilroy" letter-spacing=".51">XX</tspan><tspan font-family="Gilroy" letter-spacing=".54">I</tspan><tspan font-family="Gilroy">V</tspan></text></g></g><g clip-path="url(#vqnqa)"><g><text dominant-baseline="text-before-edge" style="line-height:34px;font-kerning:normal" fill="#453949" font-family="'Gilroy-Extrabold','Gilroy-Extrabold'" font-size="28" transform="translate(-335 -100)"><tspan font-family="Gilroy" letter-spacing=".53">E</tspan><tspan font-family="Gilroy" letter-spacing=".56">N</tspan><tspan font-family="Gilroy" letter-spacing=".28">C</tspan><tspan font-family="Gilroy" letter-spacing=".56">UE</tspan><tspan font-family="Gilroy" letter-spacing=".53">N</tspan><tspan font-family="Gilroy" letter-spacing=".56">T</tspan><tspan font-family="Gilroy" letter-spacing=".28">R</tspan><tspan font-family="Gilroy">O</tspan></text></g></g></g></g><g><g><text dominant-baseline="text-before-edge" style="line-height:34px;font-kerning:normal" fill="#453949" font-family="'Gilroy-Extrabold','Gilroy-Extrabold'" font-size="28" transform="translate(-335 -100)"><tspan font-family="Gilroy" letter-spacing=".56">A</tspan><tspan font-family="Gilroy" letter-spacing=".53">N</tspan><tspan font-family="Gilroy">U</tspan><tspan font-family="Gilroy" letter-spacing=".56">A</tspan><tspan font-family="Gilroy" letter-spacing=".53">L</tspan><tspan font-family="Gilroy" letter-spacing=".56"> </tspan><tspan font-family="Gilroy" letter-spacing="-.14">A</tspan><tspan font-family="Gilroy" letter-spacing=".25">C</tspan><tspan font-family="Gilroy" letter-spacing=".56">D</tspan><tspan font-family="Gilroy">E</tspan></text></g></g><g><g><text dominant-baseline="text-before-edge" style="line-height:24px;font-kerning:normal" fill="#453949" font-family="'Gilroy-Semibold','Gilroy-Semibold'" font-size="20" transform="translate(-335 -100)"><tspan font-family="Gilroy" letter-spacing=".4">H</tspan><tspan font-family="Gilroy" letter-spacing="-.12">A</tspan><tspan font-family="Gilroy" letter-spacing=".3">C</tspan><tspan font-family="Gilroy" letter-spacing=".4">I</tspan><tspan font-family="Gilroy" letter-spacing=".38">A </tspan><tspan font-family="Gilroy" letter-spacing=".4">UN </tspan><tspan font-family="Gilroy" letter-spacing=".2">C</tspan><tspan font-family="Gilroy" letter-spacing=".4">A</tspan><tspan font-family="Gilroy" letter-spacing=".38">P</tspan><tspan font-family="Gilroy" letter-spacing=".4">I</tspan><tspan font-family="Gilroy" letter-spacing="-.6">T</tspan><tspan font-family="Gilroy" letter-spacing=".38">A</tspan><tspan font-family="Gilroy" letter-spacing=".4">L</tspan><tspan font-family="Gilroy" letter-spacing=".2">I</tspan><tspan font-family="Gilroy" letter-spacing=".26">S</tspan><tspan font-family="Gilroy" letter-spacing=".4">M</tspan><tspan font-family="Gilroy">O</tspan></text></g></g><g><g><g/><g clip-path="url(#vqnqb)"><g><text dominant-baseline="text-before-edge" style="line-height:24px;font-kerning:normal" fill="#453949" font-family="'Gilroy-Semibold','Gilroy-Semibold'" font-size="20" transform="translate(-335 -100)"><tspan font-family="Gilroy" letter-spacing=".38">M</tspan><tspan font-family="Gilroy" letter-spacing=".02">Á</tspan><tspan font-family="Gilroy" letter-spacing=".4">S</tspan><tspan font-family="Gilroy" letter-spacing=".38"> H</tspan><tspan font-family="Gilroy" letter-spacing=".4">U</tspan><tspan font-family="Gilroy" letter-spacing=".38">M</tspan><tspan font-family="Gilroy" letter-spacing=".4">AN</tspan><tspan font-family="Gilroy">O</tspan></text></g></g><g clip-path="url(#vqnqb)"><path fill="#e22084" d="M79.777 45.565a12.675 12.675 0 0 1-3.724-9.002L63.29 49.327l.226.225a12.668 12.668 0 0 1 8.52 3.713 12.668 12.668 0 0 1 3.713 8.52l1.709 1.71 12.805-12.806-1.403-1.402a12.674 12.674 0 0 1-9.082-3.722"/></g><g clip-path="url(#vqnqb)"><path fill="#e22084" d="M79.64 70.966c-4.964-4.966-4.964-13.016 0-17.982 4.966-4.965 13.017-4.965 17.982 0 4.966 4.966 4.966 13.016 0 17.982-4.965 4.965-13.016 4.965-17.981 0"/></g><g clip-path="url(#vqnqb)"><path fill="#e22084" d="M105.041 53.307a12.673 12.673 0 0 1 9.002-3.723L101.28 36.82l-.225.225a12.666 12.666 0 0 1-3.713 8.52 12.668 12.668 0 0 1-8.52 3.713l-1.71 1.708 12.806 12.806 1.402-1.403a12.674 12.674 0 0 1 3.722-9.082"/></g><g clip-path="url(#vqnqb)"><path fill="#1673b9" d="M50.487 12.715c0 7.022-5.692 12.714-12.714 12.714-7.023 0-12.716-5.692-12.716-12.714C25.057 5.692 30.75 0 37.773 0c7.022 0 12.714 5.692 12.714 12.715"/></g><g clip-path="url(#vqnqb)"><path fill="#52ae39" d="M99.826 12.715c0 7.022-5.692 12.714-12.714 12.714s-12.715-5.692-12.715-12.714C74.397 5.692 80.09 0 87.112 0s12.714 5.692 12.714 12.715"/></g><g clip-path="url(#vqnqb)"><path fill="#52ae39" d="M21.706 45.908c-4.966 4.966-13.016 4.966-17.982 0-4.965-4.965-4.965-13.015 0-17.981 4.966-4.966 13.016-4.966 17.982 0 4.965 4.966 4.965 13.016 0 17.981"/></g><g clip-path="url(#vqnqb)"><path fill="#52ae39" d="M29.104 45.565a12.673 12.673 0 0 1-3.724-9.002L12.616 49.327l.226.225a12.668 12.668 0 0 1 8.52 3.713 12.665 12.665 0 0 1 3.713 8.52l1.708 1.71 12.805-12.806-1.402-1.402a12.674 12.674 0 0 1-9.082-3.722"/></g><g clip-path="url(#vqnqb)"><path fill="#52ae39" d="M54.369 53.307a12.673 12.673 0 0 1 9.002-3.723L50.607 36.82l-.226.225a12.664 12.664 0 0 1-3.713 8.52 12.668 12.668 0 0 1-8.52 3.713l-1.709 1.708 12.805 12.806 1.403-1.403a12.674 12.674 0 0 1 3.722-9.082"/></g><g clip-path="url(#vqnqb)"><path fill="#52ae39" d="M72.378 45.908c-4.965 4.966-13.015 4.966-17.981 0-4.965-4.965-4.965-13.015 0-17.981 4.966-4.966 13.016-4.966 17.981 0 4.966 4.966 4.966 13.016 0 17.981"/></g><g clip-path="url(#vqnqb)"><path fill="#1673b9" d="M147.923 70.966c-4.965 4.965-13.016 4.965-17.982 0-4.965-4.966-4.965-13.016 0-17.982 4.966-4.965 13.017-4.965 17.982 0 4.965 4.966 4.965 13.016 0 17.982"/></g><g clip-path="url(#vqnqb)"><path fill="#1673b9" d="M130.264 45.565a12.673 12.673 0 0 1-3.724-9.002l-12.764 12.764.225.225a12.67 12.67 0 0 1 8.521 3.713 12.667 12.667 0 0 1 3.713 8.52l1.709 1.71 12.804-12.806-1.402-1.402a12.675 12.675 0 0 1-9.082-3.722"/></g><g clip-path="url(#vqnqb)"><path fill="#1673b9" d="M155.185 45.908c-4.965-4.965-4.965-13.015 0-17.981 4.965-4.966 13.016-4.966 17.982 0 4.965 4.966 4.965 13.016 0 17.981-4.966 4.966-13.017 4.966-17.982 0"/></g><g clip-path="url(#vqnqb)"><path fill="#1673b9" d="M155.528 53.307a12.673 12.673 0 0 1 9.002-3.723L151.766 36.82l-.225.225a12.669 12.669 0 0 1-3.712 8.52 12.67 12.67 0 0 1-8.521 3.713l-1.709 1.708 12.805 12.806 1.403-1.403a12.674 12.674 0 0 1 3.721-9.082"/></g><g clip-path="url(#vqnqb)"><path fill="#e22084" d="M150.314 12.715c0 7.022-5.693 12.714-12.715 12.714s-12.715-5.692-12.715-12.714C124.884 5.692 130.577 0 137.6 0s12.715 5.692 12.715 12.715"/></g><g clip-path="url(#vqnqb)"><path fill="#e22084" d="M122.866 45.908c-4.966 4.966-13.016 4.966-17.982 0-4.965-4.965-4.965-13.015 0-17.981 4.966-4.966 13.016-4.966 17.982 0 4.965 4.966 4.965 13.016 0 17.981"/></g></g></g></g></g></svg>